<svg width="76" height="58" viewBox="0 0 76 58" fill="none" xmlns="http://www.w3.org/2000/svg">
<path fill-rule="evenodd" clip-rule="evenodd" d="M67.968 55.397H8C4.686 55.397 2 52.711 2 49.397V8.603C2 5.289 4.686 2.603 8 2.603H67.967C71.281 2.603 73.967 5.289 73.967 8.603V49.397C73.968 52.711 71.281 55.397 67.968 55.397ZM66.802 12.231C66.802 10.906 65.728 9.831 64.402 9.831H11.571C10.246 9.831 9.171 10.906 9.171 12.231V45.81C9.171 47.136 10.246 48.21 11.571 48.21H64.402C65.728 48.21 66.802 47.136 66.802 45.81V12.231ZM60.734 31.557L48.667 43.769C47.49 44.946 45.582 44.946 44.405 43.769L43.556 42.92C42.379 41.742 42.379 39.834 43.556 38.657L53.075 29.024L43.556 19.419C42.379 18.242 42.379 16.333 43.556 15.156L44.405 14.307C45.582 13.13 47.49 13.13 48.667 14.307L60.59 26.338L61.137 26.886C61.726 27.475 62.021 28.248 62.02 29.02C62.021 29.792 61.726 30.565 61.137 31.154L60.734 31.557ZM32.423 42.92L31.574 43.769C30.397 44.946 28.488 44.946 27.311 43.769L15.222 31.534L14.841 31.153C14.252 30.564 13.958 29.791 13.959 29.019C13.958 28.247 14.252 27.474 14.841 26.885L15.347 26.379L27.311 14.307C28.488 13.13 30.397 13.13 31.574 14.307L32.423 15.156C33.6 16.333 33.6 18.242 32.423 19.419L22.904 29.024L32.423 38.657C33.6 39.834 33.6 41.742 32.423 42.92Z" fill="url(#paint0_linear_755_159)" stroke="white" stroke-width="4"/>
<defs>
<linearGradient id="paint0_linear_755_159" x1="5.59835" y1="7.8824" x2="71.4889" y2="21.6826" gradientUnits="userSpaceOnUse">
<stop stop-color="#F5841F"/>
<stop offset="0.241324" stop-color="#F1C961"/>
<stop offset="0.595497" stop-color="#00B3A6"/>
<stop offset="1" stop-color="#5B5FD1"/>
</linearGradient>
</defs>
</svg>
