<?xml version="1.0" standalone="no"?>
<!DOCTYPE svg PUBLIC "-//W3C//DTD SVG 20010904//EN"
 "http://www.w3.org/TR/2001/REC-SVG-20010904/DTD/svg10.dtd">
<svg version="1.0" xmlns="http://www.w3.org/2000/svg"
 width="3972.000000pt" height="2068.000000pt" viewBox="0 0 3972.000000 2068.000000"
 preserveAspectRatio="xMidYMid meet">

<g transform="translate(0.000000,2068.000000) scale(0.100000,-0.100000)"
fill="#000000" stroke="none">
<path d="M6710 20659 c-58 -5 -141 -18 -185 -29 -210 -52 -397 -205 -496 -405
-45 -92 -64 -164 -79 -290 -14 -128 -14 -17430 1 -17563 9 -86 18 -134 35
-194 5 -17 -80 -18 -1653 -20 l-1658 -3 0 -265 0 -264 110 -48 c475 -207 1327
-356 2345 -410 363 -19 29099 -19 29460 0 400 21 847 65 1205 118 455 67 919
187 1165 301 l85 39 -5 265 -5 264 -1652 3 -1651 2 14 52 c40 154 39 -123 39
8943 0 9248 2 8775 -46 8957 -51 190 -227 390 -421 477 -85 38 -177 58 -332
71 -159 12 -26117 12 -26276 -1z m24005 -1386 c46 -24 75 -54 101 -103 17 -31
19 -59 19 -240 0 -181 -2 -209 -19 -240 -26 -49 -55 -79 -101 -103 -39 -22
-48 -22 -490 -22 l-450 0 -48 28 c-26 15 -60 47 -75 69 l-27 41 -3 214 c-3
203 -2 217 18 259 12 24 37 56 56 70 69 53 75 54 544 51 424 -2 436 -3 475
-24z m1796 -157 c87 -51 126 -153 95 -250 -35 -114 -150 -177 -266 -146 -85
23 -160 127 -160 222 0 35 44 119 78 151 65 62 173 72 253 23z m-3272 -31 c41
-21 54 -61 49 -156 -3 -74 -6 -83 -31 -105 -17 -14 -41 -24 -60 -24 -18 0 -50
-11 -72 -25 -55 -33 -90 -33 -67 1 16 24 93 64 124 64 54 0 68 23 68 107 0
105 -10 113 -143 113 -139 0 -147 -6 -147 -109 0 -89 11 -107 70 -113 53 -5
47 -32 -8 -36 -36 -3 -47 1 -72 27 -28 28 -30 34 -30 110 0 143 19 160 183
161 76 0 116 -4 136 -15z m-2019 -7 c0 -6 -7 -20 -17 -30 -15 -17 -12 -18 79
-18 83 0 99 -3 123 -22 80 -62 59 -180 -38 -217 -39 -15 -180 -14 -195 1 -25
25 7 38 100 38 102 0 122 7 137 50 12 35 7 56 -22 88 -18 19 -30 22 -106 22
-66 0 -82 -3 -73 -12 17 -17 15 -38 -5 -38 -21 0 -73 49 -73 69 0 8 14 30 32
48 32 33 58 43 58 21z m967 -20 c18 -18 33 -39 33 -48 0 -21 -51 -70 -73 -70
-20 0 -22 21 -5 38 9 9 -6 12 -71 12 -94 0 -113 -7 -131 -50 -10 -24 -10 -36
0 -60 18 -43 37 -50 132 -50 89 0 115 -9 105 -34 -5 -13 -22 -16 -86 -16 -90
0 -124 10 -163 47 -51 49 -45 129 13 178 28 23 39 25 120 25 81 0 106 8 79 25
-14 9 -13 35 2 35 7 0 27 -14 45 -32z m-20867 -1 c0 -7 -20 -33 -45 -57 l-46
-45 128 -5 c105 -4 128 -8 128 -20 0 -12 -23 -16 -128 -20 l-128 -5 46 -45
c47 -46 57 -70 28 -70 -21 0 -143 119 -143 139 0 22 121 141 142 141 10 0 18
-6 18 -13z m850 -26 c5 -11 10 -27 10 -36 0 -10 11 -26 25 -37 20 -16 25 -28
25 -67 0 -75 -11 -82 -110 -79 l-85 3 0 70 c0 63 2 71 23 80 14 6 22 18 22 35
0 14 5 31 12 38 19 19 66 15 78 -7z m23524 -77 c31 -52 56 -97 56 -100 0 -2
-52 -4 -115 -4 -63 0 -115 2 -115 4 0 7 111 196 115 196 2 0 28 -43 59 -96z
m-23245 19 l40 -67 3 64 c2 40 8 65 16 68 9 3 12 -20 12 -93 0 -86 -2 -96 -17
-93 -10 2 -36 35 -58 73 l-40 70 -5 -69 c-3 -43 -10 -71 -17 -74 -10 -3 -13
20 -13 92 0 88 2 96 19 96 14 0 32 -21 60 -67z m560 5 c29 -85 37 -97 46 -67
24 78 48 129 61 129 17 0 20 10 -20 -95 -45 -119 -59 -120 -103 -6 -37 96 -38
101 -19 101 9 0 23 -25 35 -62z m171 47 c0 -8 -7 -15 -15 -15 -16 0 -20 12 -8
23 11 12 23 8 23 -8z m170 -78 l0 -93 -49 -2 c-37 -1 -52 3 -66 18 -44 48 -4
128 57 116 26 -5 28 -3 28 24 0 20 5 30 15 30 12 0 15 -17 15 -93z m19859 50
c21 -26 -9 -37 -105 -37 -95 0 -128 12 -102 38 17 17 192 16 207 -1z m-20551
-23 c12 -8 22 -26 22 -40 0 -22 -4 -24 -45 -24 -32 0 -45 -4 -45 -14 0 -22 31
-28 56 -11 27 17 34 19 34 6 0 -18 -32 -41 -57 -41 -39 0 -63 27 -63 71 0 39
26 69 60 69 9 0 26 -7 38 -16z m808 10 c20 -5 44 -41 44 -64 0 -6 -23 -10 -51
-10 -52 0 -61 -12 -26 -34 12 -8 21 -6 35 7 23 21 32 22 32 2 0 -35 -69 -46
-100 -15 -27 27 -25 66 5 95 26 27 29 28 61 19z m179 -19 c30 -29 32 -68 5
-95 -41 -41 -120 -10 -120 47 0 30 42 73 70 73 12 0 32 -11 45 -25z m-903 -32
l12 -48 14 48 c7 27 19 47 27 47 8 0 20 -20 27 -47 l14 -48 13 48 c8 26 20 47
27 47 7 0 12 -6 9 -12 -34 -111 -38 -119 -53 -116 -10 2 -20 20 -26 48 l-9 45
-12 -45 c-6 -27 -17 -46 -27 -48 -15 -3 -19 5 -53 116 -3 6 2 12 10 12 9 0 19
-18 27 -47z m438 -19 c0 -48 -3 -65 -12 -62 -8 3 -14 28 -16 66 -2 51 0 62 13
62 12 0 15 -13 15 -66z m20033 10 c3 -3 3 -12 0 -20 -4 -11 -29 -14 -108 -14
-99 0 -124 7 -110 30 7 11 207 14 218 4z m-21668 -3719 c24 -23 25 -30 25
-148 0 -173 2 -171 -164 -175 -123 -4 -126 -3 -151 22 -24 24 -25 30 -25 151
0 120 1 127 25 150 23 24 30 25 145 25 115 0 122 -1 145 -25z m25 -1735 l0
-170 -170 0 -170 0 0 170 0 170 170 0 170 0 0 -170z m-2 -1463 c3 -42 1 -48
-15 -45 -10 2 -19 13 -21 26 -3 20 -9 22 -58 22 l-54 0 0 -129 0 -130 28 -3
c16 -2 27 -9 27 -18 0 -12 -15 -15 -75 -15 -60 0 -75 3 -75 15 0 9 11 16 28
18 l27 3 0 130 0 129 -54 0 c-49 0 -55 -2 -58 -22 -2 -13 -11 -24 -20 -26 -15
-3 -18 4 -18 41 0 24 3 47 7 51 4 3 79 5 167 4 l161 -3 3 -48z m-200 -1540
c34 -31 28 -64 -20 -108 -24 -22 -48 -39 -54 -39 -16 0 -94 86 -94 103 0 8 9
26 20 40 18 22 28 26 73 25 38 -1 58 -6 75 -21z m217 -36 c0 -57 -18 -80 -33
-42 -7 20 -10 19 -47 -19 -38 -39 -75 -53 -75 -27 0 7 18 31 40 52 46 45 48
51 20 58 -14 3 -18 10 -14 22 5 12 18 15 58 13 l51 -3 0 -54z m-223 -168 c24
-21 25 -114 2 -137 -21 -22 -111 -21 -136 1 -24 22 -25 109 -1 135 22 24 109
25 135 1z m202 -9 c55 -55 18 -144 -59 -144 -25 0 -44 8 -60 25 -54 53 -16
145 58 145 24 0 42 -8 61 -26z m26 -1504 c0 -137 -2 -152 -20 -170 -52 -52
-139 8 -108 75 11 24 48 42 76 37 8 -2 12 10 12 33 0 39 2 39 -90 25 -118 -18
-107 -9 -111 -106 -4 -76 -7 -88 -28 -105 -47 -38 -111 -10 -111 50 0 34 44
75 72 68 16 -5 18 4 18 93 0 68 4 101 13 107 15 10 188 40 240 42 l37 1 0
-150z m775 -1815 c27 -26 32 -50 13 -61 -6 -4 -19 4 -30 19 -16 21 -28 27 -59
27 -33 0 -39 -3 -39 -22 0 -27 -27 -58 -52 -58 -16 0 -18 -9 -18 -75 l0 -75
54 0 c33 0 58 -5 65 -13 17 -21 3 -27 -62 -27 -90 0 -97 10 -97 134 l0 100 37
38 c35 36 40 38 100 38 54 0 68 -4 88 -25z m11543 -61 c86 -51 95 -60 81 -85
-13 -25 -219 -140 -243 -137 -20 3 -21 10 -24 143 -4 194 -7 193 186 79z
m-579 62 c8 -9 11 -56 9 -142 -4 -160 -7 -162 -126 -73 -64 48 -82 67 -80 83
3 19 158 146 178 146 4 0 13 -6 19 -14z m1142 -46 c91 -66 100 -76 92 -97 -8
-20 -164 -133 -184 -133 -25 0 -29 20 -29 149 0 109 7 141 30 141 4 0 45 -27
91 -60z m-9241 -71 c-23 -57 -46 -108 -51 -113 -23 -25 -15 10 26 108 52 124
57 134 62 119 2 -6 -15 -57 -37 -114z m19690 57 l0 -55 53 -3 c38 -2 52 -7 52
-18 0 -11 -14 -16 -52 -18 l-53 -3 0 -48 c0 -26 -3 -51 -7 -54 -14 -15 -33 18
-33 59 l0 43 -47 3 c-35 2 -48 7 -48 18 0 11 13 16 48 18 42 3 47 6 47 26 0
45 13 86 26 86 10 0 14 -15 14 -54z m-22270 19 c0 -10 -10 -15 -30 -15 l-30 0
0 -81 c0 -71 -2 -80 -17 -77 -15 3 -18 16 -21 81 -3 74 -4 77 -27 77 -16 0
-25 6 -25 15 0 12 15 15 75 15 60 0 75 -3 75 -15z m843 8 c4 -3 2 -12 -4 -20
-9 -10 -15 -10 -25 -2 -8 6 -11 15 -8 20 6 11 28 12 37 2z m997 -15 c31 -33
28 -111 -5 -144 -46 -45 -105 -5 -105 71 0 80 64 122 110 73z m169 -4 c45 -57
17 -156 -44 -156 -41 0 -65 33 -65 90 0 81 66 121 109 66z m241 6 c15 -15 20
-33 20 -74 0 -64 -16 -86 -64 -86 -43 0 -58 19 -64 80 -4 42 -1 52 21 74 31
31 60 33 87 6z m130 -19 c-19 -28 -20 -31 -4 -31 42 0 66 -49 44 -91 -12 -22
-78 -27 -98 -7 -29 29 -7 92 54 153 26 25 29 9 4 -24z m426 31 c36 -24 46
-115 16 -152 -11 -14 -29 -22 -47 -22 -41 0 -65 33 -65 91 0 34 6 54 20 69 21
22 55 28 76 14z m183 -18 c25 -32 28 -100 5 -132 -10 -15 -25 -22 -49 -22 -44
0 -65 29 -65 90 0 82 65 119 109 64z m396 1 c35 -35 35 -106 0 -141 -19 -19
-31 -23 -48 -18 -44 13 -57 34 -57 91 0 86 53 121 105 68z m17751 -6 c54 -51
36 -146 -32 -175 -45 -19 -84 -11 -116 24 -34 36 -42 65 -28 108 24 71 120 95
176 43z m-17906 12 c0 -5 -6 -9 -12 -8 -51 2 -68 -4 -68 -23 0 -16 7 -20 33
-20 41 0 57 -15 57 -55 0 -41 -16 -55 -62 -55 -28 0 -40 5 -48 21 -7 11 -8 24
-4 27 4 4 9 1 11 -6 15 -42 83 -32 83 13 0 34 -29 48 -63 30 -33 -17 -37 -11
-30 43 l6 42 48 0 c27 0 49 -4 49 -9z m-2137 -21 c19 -23 22 -40 7 -40 -5 0
-10 -18 -10 -40 0 -22 5 -40 10 -40 6 0 10 -7 10 -15 0 -8 -6 -15 -14 -15 -26
0 -46 30 -46 71 0 21 -4 39 -10 39 -5 0 -10 4 -10 10 0 11 31 50 40 50 3 0 13
-9 23 -20z m9342 -66 c0 -64 -3 -79 -15 -79 -12 0 -16 16 -18 69 -3 76 2 100
21 93 8 -2 12 -28 12 -83z m1553 6 c4 -88 -2 -108 -23 -90 -11 9 -15 33 -15
85 0 39 3 75 7 79 18 18 28 -7 31 -74z m-11958 40 c0 -7 6 -7 19 0 13 7 22 7
26 0 8 -13 -3 -30 -20 -30 -16 0 -25 -22 -25 -66 0 -24 -5 -34 -15 -34 -12 0
-15 14 -15 70 0 56 3 70 15 70 8 0 15 -5 15 -10z m195 -60 l0 -64 -45 -2 c-63
-4 -90 16 -90 66 0 51 26 70 89 66 l46 -2 0 -64z m142 58 c19 -15 18 -128 -1
-128 -11 0 -16 15 -18 53 -3 44 -6 52 -23 52 -17 0 -21 -8 -25 -50 -4 -36 -9
-50 -20 -50 -11 0 -16 14 -18 54 -2 29 -1 59 1 65 6 15 87 18 104 4z m134 2
c32 -17 22 -32 -16 -24 -43 8 -48 -12 -5 -21 43 -9 56 -39 30 -65 -31 -31
-100 -20 -100 15 0 17 26 20 35 5 8 -13 45 -13 45 0 0 5 -12 13 -27 16 -53 13
-67 39 -37 68 18 18 47 20 75 6z m157 -6 c24 -17 30 -44 8 -44 -7 0 -19 7 -26
15 -20 24 -49 18 -56 -10 -11 -44 29 -72 56 -40 16 19 40 19 40 1 0 -19 -39
-46 -66 -46 -36 0 -67 33 -67 70 0 58 62 89 111 54z m82 6 c0 -7 6 -7 19 0 13
7 22 7 26 0 8 -13 -3 -30 -20 -30 -16 0 -25 -22 -25 -66 0 -24 -5 -34 -15 -34
-12 0 -15 14 -15 70 0 56 3 70 15 70 8 0 15 -5 15 -10z m100 -60 c0 -56 -3
-70 -15 -70 -12 0 -15 14 -15 70 0 56 3 70 15 70 12 0 15 -14 15 -70z m70 58
c0 -9 3 -9 12 0 20 20 55 13 77 -14 27 -34 26 -54 -1 -89 -18 -23 -27 -26 -55
-22 -30 5 -33 3 -33 -19 0 -15 -6 -24 -15 -24 -12 0 -15 17 -15 90 0 73 3 90
15 90 8 0 15 -5 15 -12z m-1182 -49 c2 -36 -1 -48 -14 -53 -26 -10 -44 13 -44
54 0 43 7 52 35 48 16 -2 21 -12 23 -49z m2372 36 c0 -8 -7 -15 -15 -15 -8 0
-15 7 -15 15 0 8 7 15 15 15 8 0 15 -7 15 -15z m980 0 c0 -8 -7 -15 -15 -15
-8 0 -15 7 -15 15 0 8 7 15 15 15 8 0 15 -7 15 -15z m-3475 -35 c0 -18 -33
-26 -47 -12 -6 6 -7 15 -3 22 10 16 50 8 50 -10z m20728 13 c4 -3 2 -12 -4
-20 -8 -9 -41 -13 -120 -13 -103 0 -128 7 -114 30 7 11 227 14 238 3z m587
-13 c0 -19 -7 -20 -164 -20 -125 0 -166 3 -175 13 -6 8 -8 17 -4 20 3 4 82 7
175 7 161 0 168 -1 168 -20z m-21258 -35 c12 -26 41 -41 59 -30 5 4 14 18 20
32 11 29 33 26 37 -6 2 -14 -7 -31 -25 -49 -16 -15 -32 -35 -36 -45 -9 -23
-31 -17 -36 8 -2 10 -14 27 -27 37 -25 20 -39 52 -29 68 10 17 25 11 37 -15z
m-57 -25 c0 -18 -33 -26 -47 -12 -6 6 -7 15 -3 22 10 16 50 8 50 -10z m2495 5
c0 -8 -7 -15 -15 -15 -16 0 -20 12 -8 23 11 12 23 8 23 -8z m980 0 c0 -8 -7
-15 -15 -15 -16 0 -20 12 -8 23 11 12 23 8 23 -8z m-1300 -359 c0 -50 -3 -56
-35 -80 l-35 -27 0 -335 0 -334 2033 0 c1915 0 2034 -1 2067 -18 19 -9 45 -33
58 -52 23 -34 23 -40 20 -232 -3 -194 -3 -197 -28 -224 -54 -58 83 -54 -2120
-54 l-2030 0 0 -72 0 -73 10877 2 c8546 2 10879 0 10885 -10 9 -14 11 -511 2
-544 l-6 -23 -10879 0 -10879 0 0 -145 0 -145 -25 0 -25 0 0 145 0 145 -1189
0 -1188 0 -33 23 c-63 42 -70 71 -70 267 0 192 7 222 64 265 27 20 37 20 1222
21 657 0 1194 4 1194 7 0 4 0 36 0 72 l0 65 -262 0 c-295 0 -311 3 -356 70
-23 34 -23 40 -20 232 3 194 3 197 28 224 47 51 68 54 350 54 l260 0 0 334 0
335 -35 27 c-32 24 -35 30 -35 80 l0 54 95 0 95 0 0 -54z m14680 -4241 c0 -13
-22 -15 -140 -15 -87 0 -140 -4 -140 -10 0 -6 -46 -10 -119 -10 -171 0 -182
-14 -16 -20 l140 -6 -137 -2 -138 -2 0 -96 c0 -81 3 -100 20 -121 24 -31 26
-51 5 -59 -10 -4 -15 -20 -15 -45 l0 -39 118 -2 117 -2 -120 -5 -120 -5 120
-6 120 -6 -117 -2 -118 -2 0 -25 0 -25 -4688 0 -4689 0 -23 25 c-22 23 -31 25
-119 27 l-96 2 100 6 100 6 -100 4 -100 4 98 3 97 4 0 179 0 180 -92 2 -93 2
93 3 c81 3 92 6 90 21 -3 16 67 17 1124 20 l1128 2 5 -22 c3 -13 7 -32 9 -43
15 -89 109 -199 213 -248 l68 -32 2170 0 2170 0 68 35 c38 19 77 43 87 52 10
9 21 14 26 10 4 -4 4 -2 1 4 -4 7 4 23 18 36 33 33 75 130 82 190 l6 48 1393
0 c1232 0 1394 -2 1394 -15z m-8162 -2 c-252 -2 -664 -2 -915 0 -252 1 -46 2
457 2 503 0 709 -1 458 -2z"/>
<path d="M29941 19006 c-7 -8 -11 -27 -9 -43 2 -23 10 -30 48 -42 53 -17 66
-31 43 -48 -24 -18 -41 -16 -60 7 -20 23 -43 26 -43 7 0 -25 36 -47 74 -47 53
0 76 15 76 49 0 35 -12 46 -67 60 -43 12 -56 34 -27 45 24 9 31 8 48 -10 9 -8
23 -14 31 -12 14 3 14 6 0 26 -13 17 -26 22 -59 22 -26 0 -48 -6 -55 -14z"/>
<path d="M30106 18954 c-20 -19 -21 -88 -2 -103 8 -7 23 -12 33 -12 10 0 33 1
51 1 l32 1 0 63 0 63 -49 2 c-33 0 -55 -5 -65 -15z m84 -48 c0 -32 -26 -53
-48 -39 -24 14 -27 54 -7 70 24 17 55 -1 55 -31z"/>
<path d="M30242 18959 c3 -8 13 -38 23 -66 15 -43 23 -53 41 -53 18 0 26 10
40 53 9 28 19 58 22 65 2 6 -2 12 -11 12 -8 0 -22 -20 -32 -47 l-18 -47 -17
45 c-10 25 -25 46 -35 48 -12 2 -16 -2 -13 -10z"/>
<path d="M30396 18954 c-22 -22 -24 -77 -4 -101 15 -18 83 -16 98 2 18 22 4
31 -24 15 -28 -15 -56 -8 -56 15 0 11 12 15 50 15 54 0 61 10 34 48 -18 26
-74 30 -98 6z m58 -10 c27 -10 18 -24 -15 -24 -27 0 -30 2 -19 15 14 17 13 17
34 9z"/>
<path d="M8111 19017 c-21 -21 -13 -47 14 -47 20 0 25 5 25 24 0 27 -22 40
-39 23z"/>
<path d="M8120 18874 c0 -8 5 -12 10 -9 6 4 8 11 5 16 -9 14 -15 11 -15 -7z"/>
<path d="M9251 18946 c-18 -21 -6 -63 20 -71 29 -10 51 13 47 49 -2 25 -8 32
-29 34 -14 2 -31 -4 -38 -12z"/>
<path d="M8597 18953 c-15 -14 -6 -23 23 -23 20 0 30 5 30 15 0 15 -40 21 -53
8z"/>
<path d="M9417 18954 c-15 -16 -5 -24 29 -24 24 0 34 4 32 13 -5 13 -50 22
-61 11z"/>
<path d="M9566 18944 c-18 -47 14 -85 54 -64 37 20 22 80 -20 80 -16 0 -30 -7
-34 -16z"/>
<path d="M7288 15179 c-15 -8 -18 -24 -18 -79 l0 -70 25 12 c19 9 29 8 49 -6
35 -23 48 -20 81 14 30 32 71 40 93 18 9 -9 12 1 12 45 0 45 -4 58 -19 67 -25
13 -201 13 -223 -1z m90 -61 c6 -47 -59 -62 -73 -17 -9 27 13 51 44 47 20 -2
27 -9 29 -30z"/>
<path d="M7430 15005 c-47 -40 -56 -42 -89 -19 -19 14 -26 14 -47 3 -16 -8
-24 -20 -22 -33 3 -20 9 -21 128 -21 l125 0 3 34 c3 27 -2 39 -20 53 -30 23
-30 23 -78 -17z"/>
<path d="M7270 13470 l0 -130 35 0 35 0 0 130 0 130 -35 0 -35 0 0 -130z"/>
<path d="M7380 13545 l0 -55 75 0 75 0 0 55 0 55 -75 0 -75 0 0 -55z"/>
<path d="M7380 13395 l0 -55 75 0 75 0 0 55 0 55 -75 0 -75 0 0 -55z"/>
<path d="M7256 10443 c-13 -13 -4 -39 18 -55 22 -16 24 -15 50 9 22 20 25 28
15 39 -9 11 -15 12 -26 2 -11 -9 -19 -9 -33 0 -10 6 -21 8 -24 5z"/>
<path d="M7257 10234 c-4 -4 -7 -25 -7 -46 l0 -38 46 0 45 0 -3 43 c-3 40 -4
42 -38 45 -20 2 -39 0 -43 -4z"/>
<path d="M7472 10228 c-7 -7 -12 -21 -12 -33 0 -44 60 -63 80 -26 14 27 13 37
-6 55 -18 19 -45 21 -62 4z"/>
<path d="M7443 8843 c-87 -14 -93 -17 -93 -39 0 -28 8 -29 120 -11 71 11 75
13 78 40 2 15 0 26 -5 26 -4 -1 -50 -8 -100 -16z"/>
<path d="M7503 8634 c-3 -8 -1 -20 6 -27 14 -14 47 15 37 32 -10 16 -36 13
-43 -5z"/>
<path d="M7255 8600 c-9 -15 14 -40 31 -33 22 8 18 43 -5 43 -11 0 -23 -5 -26
-10z"/>
<path d="M19235 6854 c-33 -25 -61 -48 -62 -52 -3 -9 116 -96 123 -89 3 2 3
45 2 95 l-3 91 -60 -45z"/>
<path d="M20390 6801 l0 -101 65 47 c35 27 63 52 62 57 -2 5 -31 29 -65 53
l-62 45 0 -101z"/>
<path d="M10422 6881 c-22 -14 -27 -87 -8 -116 20 -31 40 -32 60 -3 29 41 10
128 -27 128 -7 0 -18 -4 -25 -9z"/>
<path d="M10586 6868 c-30 -42 -10 -128 29 -128 21 0 45 40 45 75 0 35 -24 75
-45 75 -8 0 -21 -10 -29 -22z"/>
<path d="M10832 6878 c-46 -59 -3 -169 49 -122 21 19 26 82 9 115 -12 22 -43
25 -58 7z"/>
<path d="M10992 6808 c-18 -18 -14 -46 7 -58 25 -13 48 -4 56 21 12 38 -35 65
-63 37z"/>
<path d="M11396 6868 c-30 -42 -10 -128 29 -128 21 0 45 40 45 75 0 35 -24 75
-45 75 -8 0 -21 -10 -29 -22z"/>
<path d="M11566 6868 c-30 -42 -10 -128 29 -128 21 0 45 40 45 75 0 35 -24 75
-45 75 -8 0 -21 -10 -29 -22z"/>
<path d="M11966 6875 c-24 -24 -21 -97 5 -121 27 -24 51 -9 64 40 16 65 -30
119 -69 81z"/>
<path d="M29660 6850 c-43 -43 -7 -120 56 -120 55 0 87 86 46 123 -25 23 -78
21 -102 -3z"/>
<path d="M8782 6818 c-27 -27 -3 -73 35 -66 27 5 25 72 -2 76 -11 1 -26 -3
-33 -10z"/>
<path d="M9570 6815 c-26 -31 13 -82 44 -56 19 16 21 42 4 59 -16 16 -33 15
-48 -3z"/>
<path d="M9927 5414 c-13 -13 5 -24 39 -24 l34 0 0 -69 c0 -38 3 -76 6 -85 13
-34 24 -1 24 74 l0 79 43 3 c23 2 42 8 42 13 0 11 -177 20 -188 9z"/>
<path d="M10240 5405 c0 -9 9 -15 25 -15 24 0 25 -2 25 -65 0 -36 4 -65 9 -65
9 0 19 113 13 144 -5 22 -72 23 -72 1z"/>
<path d="M10361 5404 c0 -11 3 -14 6 -6 3 7 2 16 -1 19 -3 4 -6 -2 -5 -13z"/>
<path d="M10396 5413 c-11 -11 -6 -23 9 -23 8 0 15 4 15 9 0 13 -16 22 -24 14z"/>
<path d="M10530 5340 c0 -75 1 -80 21 -80 17 0 20 4 15 23 -3 12 -6 48 -6 80
0 44 -3 57 -15 57 -12 0 -15 -16 -15 -80z"/>
<path d="M10796 5399 c-21 -16 -26 -29 -26 -63 0 -66 49 -98 116 -76 33 11 35
15 32 48 -3 35 -5 37 -40 40 -29 2 -38 0 -38 -12 0 -10 9 -16 25 -16 33 0 33
-28 0 -36 -48 -12 -80 39 -55 87 13 23 58 26 66 4 7 -16 44 -21 44 -5 0 18
-44 50 -71 50 -14 0 -38 -9 -53 -21z"/>
<path d="M11380 5340 c0 -64 3 -80 15 -80 10 0 15 10 15 30 0 27 3 30 30 30
27 0 30 -3 30 -30 0 -24 4 -30 20 -30 19 0 21 5 18 78 -2 60 -6 77 -18 77 -9
0 -17 -12 -20 -30 -4 -24 -11 -31 -32 -33 -26 -3 -28 -1 -28 32 0 25 -4 36
-15 36 -12 0 -15 -16 -15 -80z"/>
<path d="M10450 5386 c0 -8 -6 -16 -12 -19 -10 -4 -10 -7 0 -18 6 -7 12 -23
12 -35 0 -38 11 -54 36 -54 27 0 32 17 9 26 -8 4 -15 17 -15 30 0 14 7 27 15
30 8 4 15 10 15 15 0 5 -7 9 -15 9 -8 0 -15 7 -15 15 0 8 -7 15 -15 15 -8 0
-15 -6 -15 -14z"/>
<path d="M11780 5372 c-45 -14 -54 -82 -15 -108 21 -14 30 -14 56 -4 22 9 29
18 26 31 -3 10 -1 19 4 21 5 2 3 14 -4 27 -13 26 -43 41 -67 33z m35 -32 c4
-6 -5 -10 -20 -10 -15 0 -24 4 -20 10 3 6 12 10 20 10 8 0 17 -4 20 -10z m2
-47 c-8 -9 -23 -13 -31 -10 -27 10 -18 24 16 25 28 1 30 -1 15 -15z"/>
<path d="M10390 5315 c0 -42 3 -55 15 -55 12 0 15 13 15 55 0 42 -3 55 -15 55
-12 0 -15 -13 -15 -55z"/>
<path d="M10597 5352 c-44 -49 6 -116 68 -92 14 5 25 16 25 25 0 17 -16 20
-25 5 -10 -16 -45 -12 -45 5 0 11 11 15 40 15 41 0 47 8 30 41 -14 25 -71 26
-93 1z m63 -12 c0 -5 -9 -10 -21 -10 -11 0 -17 5 -14 10 3 6 13 10 21 10 8 0
14 -4 14 -10z"/>
<path d="M10952 5358 c-22 -22 -15 -76 12 -93 61 -40 131 40 78 88 -22 20 -73
22 -90 5z m67 -27 c13 -24 -9 -57 -33 -48 -19 7 -22 53 -3 60 21 9 26 7 36
-12z"/>
<path d="M11086 5354 c-17 -16 -20 -41 -10 -69 16 -41 112 -37 101 5 -3 10 0
21 6 23 8 2 6 13 -6 30 -20 31 -66 37 -91 11z m59 -14 c3 -5 -3 -10 -14 -10
-12 0 -21 5 -21 10 0 6 6 10 14 10 8 0 18 -4 21 -10z m9 -45 c-4 -8 -15 -15
-25 -15 -10 0 -19 7 -19 15 0 9 9 15 25 15 18 0 23 -4 19 -15z"/>
<path d="M11210 5355 c-18 -22 -5 -45 30 -51 34 -7 41 -24 10 -24 -11 0 -20 5
-20 10 0 6 -7 10 -15 10 -25 0 -17 -30 12 -41 51 -19 96 24 61 59 -7 7 -20 12
-30 12 -10 0 -18 4 -18 10 0 5 14 7 33 3 29 -6 31 -5 18 10 -17 21 -64 22 -81
2z"/>
<path d="M11541 5356 c-7 -8 -11 -30 -9 -48 4 -44 47 -68 82 -45 25 17 33 71
14 94 -14 17 -73 16 -87 -1z m64 -16 c4 -6 -5 -10 -20 -10 -15 0 -24 4 -20 10
3 6 12 10 20 10 8 0 17 -4 20 -10z m3 -46 c-9 -10 -24 -14 -33 -10 -23 9 -9
26 23 26 24 0 25 -1 10 -16z"/>
<path d="M11660 5314 c0 -47 2 -54 20 -54 16 0 20 7 20 35 0 22 6 38 15 41 29
11 16 32 -20 32 l-35 0 0 -54z"/>
<path d="M22297 2003 c-4 -3 -7 -11 -7 -17 0 -6 5 -5 12 2 6 6 9 14 7 17 -3 3
-9 2 -12 -2z"/>
<path d="M22272 1940 c0 -14 2 -19 5 -12 2 6 2 18 0 25 -3 6 -5 1 -5 -13z"/>
<path d="M22280 1868 c-12 -22 -12 -22 6 -6 10 10 15 20 12 24 -4 3 -12 -5
-18 -18z"/>
<path d="M21988 1763 c7 -3 16 -2 19 1 4 3 -2 6 -13 5 -11 0 -14 -3 -6 -6z"/>
</g>
</svg>
