<svg width="20" height="10" viewBox="0 0 20 10" fill="none" xmlns="http://www.w3.org/2000/svg">
<rect x="0.941406" width="18.125" height="10" rx="5" fill="#AAAAAA"/>
<path fill-rule="evenodd" clip-rule="evenodd" d="M7.19141 5.3125C7.19141 6.17544 6.49185 6.875 5.62891 6.875C4.76596 6.875 4.06641 6.17544 4.06641 5.3125C4.06641 4.44956 4.76596 3.75 5.62891 3.75C6.49185 3.75 7.19141 4.44956 7.19141 5.3125ZM11.6561 5.3125C11.6561 6.17544 10.9565 6.875 10.0936 6.875C9.23063 6.875 8.53107 6.17544 8.53107 5.3125C8.53107 4.44956 9.23063 3.75 10.0936 3.75C10.9565 3.75 11.6561 4.44956 11.6561 5.3125ZM14.5565 6.875C15.4194 6.875 16.119 6.17544 16.119 5.3125C16.119 4.44956 15.4194 3.75 14.5565 3.75C13.6935 3.75 12.994 4.44956 12.994 5.3125C12.994 6.17544 13.6935 6.875 14.5565 6.875Z" fill="white"/>
</svg>
