<svg width="60" height="58" viewBox="0 0 60 58" fill="none" xmlns="http://www.w3.org/2000/svg">
<path d="M4.60872 26.2775C5.10757 26.4016 5.60644 26.4649 6.1661 26.5257L6.54085 34.3127C6.54085 34.6874 6.85232 34.9989 7.22709 34.9989H10.5292C10.904 34.9989 11.2155 34.6874 11.2155 34.3127L11.5245 26.5257C12.0234 26.4625 12.5831 26.4016 13.0819 26.2775C13.4567 26.2143 13.6416 25.8419 13.5808 25.5305L13.2693 21.9169C13.1452 20.7342 12.3349 19.7365 11.2763 19.2377C10.5293 19.6732 9.71895 19.9239 8.78452 19.9239C7.91338 19.9239 7.03975 19.6757 6.29271 19.2377C5.29498 19.7365 4.48471 20.7342 4.36055 21.9169L4.04908 25.5305C3.98581 25.842 4.23641 26.2143 4.60872 26.2775Z" fill="url(#paint0_linear_755_121)"/>
<path d="M8.84524 18.2427C10.59 18.2427 11.96 16.8727 11.96 15.1279C11.96 13.3831 10.59 12.0131 8.84524 12.0131C7.10047 12.0131 5.73047 13.3831 5.73047 15.1279C5.73047 16.8702 7.10047 18.2427 8.84524 18.2427Z" fill="url(#paint1_linear_755_121)"/>
<path d="M18.4405 20.423C18.9394 20.5471 19.4383 20.6104 19.9979 20.6712L20.3727 28.4582C20.3727 28.8329 20.6841 29.1444 21.0589 29.1444H24.3611C24.7358 29.1444 25.0473 28.8329 25.0473 28.4582L25.4172 20.6712C25.916 20.608 26.4757 20.5471 26.9746 20.423C27.3493 20.3598 27.5343 19.9874 27.4734 19.676L27.1619 16.1256C27.0378 14.943 26.2275 13.9453 25.169 13.4464C24.4219 13.882 23.6116 14.1327 22.6772 14.1327C21.806 14.1327 20.9324 13.8845 20.1854 13.4464C19.1268 13.9453 18.3798 14.8797 18.1924 16.1256L17.8809 19.676C17.8177 19.985 18.0658 20.2965 18.4405 20.423Z" fill="url(#paint2_linear_755_121)"/>
<path d="M22.6742 12.385C24.419 12.385 25.789 11.015 25.789 9.27027C25.789 7.5255 24.419 6.1555 22.6742 6.1555C20.9294 6.1555 19.5594 7.5255 19.5594 9.27027C19.5594 10.9517 20.9319 12.385 22.6742 12.385Z" fill="url(#paint3_linear_755_121)"/>
<path d="M32.2695 14.505C32.7684 14.6291 33.2673 14.6923 33.8269 14.7532L34.1992 22.5401C34.1992 22.9148 34.5107 23.2263 34.8855 23.2263H38.1876C38.5624 23.2263 38.8739 22.9149 38.8739 22.5401L39.2486 14.7532C39.7475 14.6899 40.3071 14.6291 40.806 14.505C41.1808 14.4417 41.3657 14.0694 41.3049 13.7579L40.9934 10.2076C40.8693 9.02497 40.059 8.02724 39.0004 7.52838C38.2534 7.96396 37.443 8.21463 36.5086 8.21463C35.6375 8.21463 34.7638 7.96642 34.0168 7.52838C32.9583 8.02723 32.2112 8.96167 32.0238 10.2076L31.7124 13.7579C31.7075 14.1302 31.8948 14.4417 32.2695 14.505Z" fill="url(#paint4_linear_755_121)"/>
<path d="M36.5062 6.53053C38.251 6.53053 39.621 5.16053 39.621 3.41576C39.621 1.67099 38.251 0.300995 36.5062 0.300995C34.7615 0.300995 33.3915 1.67099 33.3915 3.41576C33.3915 5.09724 34.7615 6.53053 36.5062 6.53053Z" fill="url(#paint5_linear_755_121)"/>
<path d="M6.10542 44.6547C5.29508 44.6547 4.61133 45.3409 4.61133 46.1488V51.6312H13.0212V46.1488C13.0212 45.3384 12.335 44.6547 11.5271 44.6547H6.10542Z" fill="url(#paint6_linear_755_121)"/>
<path d="M19.9979 39.919C19.1875 39.919 18.5038 40.6052 18.5038 41.4131V51.6283H26.9137L26.9112 41.4149C26.9112 40.6046 26.225 39.9208 25.4171 39.9208L19.9979 39.919Z" fill="url(#paint7_linear_755_121)"/>
<path d="M33.8269 34.5634C33.0165 34.5634 32.3328 35.2497 32.3328 36.0575V51.6314H40.7426V36.0575C40.7426 35.2472 40.0564 34.5634 39.2485 34.5634H33.8269Z" fill="url(#paint8_linear_755_121)"/>
<path d="M47.6558 30.8861C46.8455 30.8861 46.1617 31.5724 46.1617 32.3802V51.5678H54.5716V32.3827C54.5716 31.5724 53.8854 30.8886 53.0775 30.8886L47.6558 30.8861Z" fill="url(#paint9_linear_755_121)"/>
<path d="M58.0585 53.8115H1.12181C0.498861 53.8115 0 54.3103 0 54.9333V56.1792C0 56.8021 0.498849 57.301 1.12181 57.301H58.1221C58.745 57.301 59.2439 56.8022 59.2439 56.1792V54.9333C59.1806 54.3103 58.6815 53.8115 58.0585 53.8115Z" fill="url(#paint10_linear_755_121)"/>
<path d="M46.2224 20.9189L48.7775 21.9166L8.34656 39.0478C7.7236 39.296 7.47542 39.9823 7.7236 40.6052C7.91097 41.0408 8.34656 41.2915 8.78212 41.2915C8.90623 41.2915 9.0936 41.2915 9.21771 41.1674L49.5857 24.0361L48.588 26.5912C48.3398 27.2142 48.6513 27.9004 49.211 28.1486C49.3351 28.2119 49.5224 28.2119 49.6465 28.2119C50.0821 28.2119 50.581 27.9637 50.7683 27.4648L52.8246 22.2938C52.9487 21.9824 52.9487 21.6709 52.8246 21.4227C52.7005 21.1112 52.4499 20.9238 52.2016 20.7997L47.0306 18.7435C46.4077 18.4953 45.7214 18.8068 45.4732 19.3664C45.2883 19.9845 45.5994 20.6707 46.2224 20.9189Z" fill="url(#paint11_linear_755_121)"/>
<path d="M46.7214 11.2631H49.15V13.6916C49.15 14.3146 49.6488 14.8742 50.3326 14.8742C51.0188 14.8742 51.5152 14.3754 51.5152 13.6916V11.2631H53.9437C54.5667 11.2631 55.1263 10.7643 55.1263 10.0805C55.1263 9.45754 54.6275 8.89788 53.9437 8.89788H51.5152V6.46936C51.5152 5.8464 51.0163 5.28674 50.3326 5.28674C49.6463 5.28674 49.15 5.78559 49.15 6.46936V8.89788H46.7214C46.0985 8.89788 45.5388 9.39673 45.5388 10.0805C45.5997 10.7667 46.0985 11.2631 46.7214 11.2631Z" fill="url(#paint12_linear_755_121)"/>
<defs>
<linearGradient id="paint0_linear_755_121" x1="4.51695" y1="20.8138" x2="13.5684" y2="21.6567" gradientUnits="userSpaceOnUse">
<stop stop-color="#F5841F"/>
<stop offset="0.241324" stop-color="#F1C961"/>
<stop offset="0.595497" stop-color="#00B3A6"/>
<stop offset="1" stop-color="#5B5FD1"/>
</linearGradient>
<linearGradient id="paint1_linear_755_121" x1="6.04195" y1="12.6361" x2="11.8584" y2="13.5297" gradientUnits="userSpaceOnUse">
<stop stop-color="#F5841F"/>
<stop offset="0.241324" stop-color="#F1C961"/>
<stop offset="0.595497" stop-color="#00B3A6"/>
<stop offset="1" stop-color="#5B5FD1"/>
</linearGradient>
<linearGradient id="paint2_linear_755_121" x1="18.3518" y1="15.0162" x2="27.4593" y2="15.8732" gradientUnits="userSpaceOnUse">
<stop stop-color="#F5841F"/>
<stop offset="0.241324" stop-color="#F1C961"/>
<stop offset="0.595497" stop-color="#00B3A6"/>
<stop offset="1" stop-color="#5B5FD1"/>
</linearGradient>
<linearGradient id="paint3_linear_755_121" x1="19.8709" y1="6.77846" x2="25.6874" y2="7.67211" gradientUnits="userSpaceOnUse">
<stop stop-color="#F5841F"/>
<stop offset="0.241324" stop-color="#F1C961"/>
<stop offset="0.595497" stop-color="#00B3A6"/>
<stop offset="1" stop-color="#5B5FD1"/>
</linearGradient>
<linearGradient id="paint4_linear_755_121" x1="32.1925" y1="9.09818" x2="41.2909" y2="9.95341" gradientUnits="userSpaceOnUse">
<stop stop-color="#F5841F"/>
<stop offset="0.241324" stop-color="#F1C961"/>
<stop offset="0.595497" stop-color="#00B3A6"/>
<stop offset="1" stop-color="#5B5FD1"/>
</linearGradient>
<linearGradient id="paint5_linear_755_121" x1="33.703" y1="0.923949" x2="39.5194" y2="1.8176" gradientUnits="userSpaceOnUse">
<stop stop-color="#F5841F"/>
<stop offset="0.241324" stop-color="#F1C961"/>
<stop offset="0.595497" stop-color="#00B3A6"/>
<stop offset="1" stop-color="#5B5FD1"/>
</linearGradient>
<linearGradient id="paint6_linear_755_121" x1="5.03182" y1="45.3523" x2="12.8028" y2="46.7916" gradientUnits="userSpaceOnUse">
<stop stop-color="#F5841F"/>
<stop offset="0.241324" stop-color="#F1C961"/>
<stop offset="0.595497" stop-color="#00B3A6"/>
<stop offset="1" stop-color="#5B5FD1"/>
</linearGradient>
<linearGradient id="paint7_linear_755_121" x1="18.9243" y1="41.0899" x2="26.8651" y2="41.9662" gradientUnits="userSpaceOnUse">
<stop stop-color="#F5841F"/>
<stop offset="0.241324" stop-color="#F1C961"/>
<stop offset="0.595497" stop-color="#00B3A6"/>
<stop offset="1" stop-color="#5B5FD1"/>
</linearGradient>
<linearGradient id="paint8_linear_755_121" x1="32.7533" y1="36.2702" x2="40.745" y2="36.8753" gradientUnits="userSpaceOnUse">
<stop stop-color="#F5841F"/>
<stop offset="0.241324" stop-color="#F1C961"/>
<stop offset="0.595497" stop-color="#00B3A6"/>
<stop offset="1" stop-color="#5B5FD1"/>
</linearGradient>
<linearGradient id="paint9_linear_755_121" x1="46.5822" y1="32.9543" x2="54.5885" y2="33.4545" gradientUnits="userSpaceOnUse">
<stop stop-color="#F5841F"/>
<stop offset="0.241324" stop-color="#F1C961"/>
<stop offset="0.595497" stop-color="#00B3A6"/>
<stop offset="1" stop-color="#5B5FD1"/>
</linearGradient>
<linearGradient id="paint10_linear_755_121" x1="2.96219" y1="54.1604" x2="10.2174" y2="73.0855" gradientUnits="userSpaceOnUse">
<stop stop-color="#F5841F"/>
<stop offset="0.241324" stop-color="#F1C961"/>
<stop offset="0.595497" stop-color="#00B3A6"/>
<stop offset="1" stop-color="#5B5FD1"/>
</linearGradient>
<linearGradient id="paint11_linear_755_121" x1="9.893" y1="20.9206" x2="49.4395" y2="33.0782" gradientUnits="userSpaceOnUse">
<stop stop-color="#F5841F"/>
<stop offset="0.241324" stop-color="#F1C961"/>
<stop offset="0.595497" stop-color="#00B3A6"/>
<stop offset="1" stop-color="#5B5FD1"/>
</linearGradient>
<linearGradient id="paint12_linear_755_121" x1="46.0182" y1="6.24549" x2="54.9699" y2="7.62086" gradientUnits="userSpaceOnUse">
<stop stop-color="#F5841F"/>
<stop offset="0.241324" stop-color="#F1C961"/>
<stop offset="0.595497" stop-color="#00B3A6"/>
<stop offset="1" stop-color="#5B5FD1"/>
</linearGradient>
</defs>
</svg>
