<svg width="56" height="58" viewBox="0 0 56 58" fill="none" xmlns="http://www.w3.org/2000/svg">
<path fill-rule="evenodd" clip-rule="evenodd" d="M55.2924 12.1498H47.8274V57.833H55.2924V12.1498ZM46.032 4.90175C45.8224 4.89585 45.6235 4.80846 45.4773 4.65816C45.3312 4.50786 45.2494 4.3065 45.2494 4.09687C45.2494 3.88724 45.3312 3.68588 45.4773 3.53558C45.6235 3.38528 45.8224 3.29789 46.032 3.29199H49.9942C50.2078 3.29199 50.4126 3.3768 50.5638 3.52779C50.7149 3.67877 50.7998 3.88358 50.8 4.09719V8.06001C50.7941 8.26956 50.7067 8.46854 50.5564 8.61467C50.4061 8.7608 50.2048 8.84255 49.9951 8.84255C49.7855 8.84255 49.5841 8.7608 49.4338 8.61467C49.2835 8.46854 49.1962 8.26956 49.1903 8.06001V6.02405L35.9255 19.1777C35.85 19.2649 35.7566 19.3348 35.6517 19.3827C35.5468 19.4305 35.4328 19.4553 35.3175 19.4553H27.5009L5.33247 35.4457C5.15985 35.5675 4.94612 35.6162 4.73778 35.5812C4.52943 35.5462 4.34333 35.4304 4.21995 35.2589C4.09657 35.0874 4.0459 34.8742 4.07895 34.6655C4.11201 34.4569 4.22612 34.2697 4.39647 34.1447L26.778 18.0025C26.914 17.9034 27.0782 17.8506 27.2464 17.8519V17.8474H34.9895L48.0431 4.90175H46.032ZM10.9606 0.833008C8.94834 0.833134 6.98135 1.42994 5.30832 2.54796C3.63528 3.66598 2.33134 5.255 1.56139 7.11408C0.791432 8.97316 0.590043 11.0188 0.982684 12.9923C1.37533 14.9659 2.34436 16.7787 3.76726 18.2015C5.19016 19.6243 7.003 20.5932 8.97657 20.9857C10.9501 21.3782 12.9958 21.1767 14.8548 20.4067C16.7138 19.6366 18.3028 18.3325 19.4207 16.6594C20.5386 14.9863 21.1353 13.0193 21.1353 11.0071C21.1351 8.3087 20.0631 5.72088 18.1549 3.81289C16.2468 1.9049 13.659 0.833008 10.9606 0.833008ZM10.9606 11.6968C11.2524 11.6964 11.5379 11.7827 11.7808 11.9446C12.0236 12.1065 12.213 12.3368 12.3249 12.6064C12.4368 12.876 12.4662 13.1727 12.4094 13.459C12.3526 13.7453 12.2121 14.0083 12.0058 14.2148C11.7994 14.4212 11.5365 14.5618 11.2502 14.6187C10.9639 14.6757 10.6672 14.6464 10.3975 14.5346C10.1279 14.4228 9.89748 14.2335 9.73546 13.9907C9.57344 13.748 9.48709 13.4626 9.48734 13.1707C9.48734 12.9877 9.41467 12.8123 9.28533 12.683C9.15598 12.5536 8.98055 12.4809 8.79762 12.4809C8.6147 12.4809 8.43927 12.5536 8.30992 12.683C8.18058 12.8123 8.10791 12.9877 8.10791 13.1707C8.10838 13.8073 8.32152 14.4256 8.71351 14.9273C9.10549 15.4289 9.65384 15.7853 10.2715 15.9397V17.5074C10.2715 17.6903 10.3441 17.8657 10.4735 17.9951C10.6028 18.1244 10.7783 18.1971 10.9612 18.1971C11.1441 18.1971 11.3196 18.1244 11.4489 17.9951C11.5782 17.8657 11.6509 17.6903 11.6509 17.5074V15.9397C12.3261 15.7706 12.9161 15.3606 13.31 14.7868C13.7039 14.2129 13.8745 13.5149 13.7897 12.8241C13.7048 12.1333 13.3704 11.4973 12.8494 11.0359C12.3283 10.5744 11.6566 10.3194 10.9606 10.3187C10.6693 10.3184 10.3846 10.2318 10.1425 10.0698C9.90041 9.90779 9.71178 9.67765 9.60045 9.40847C9.48912 9.13929 9.46009 8.84315 9.51703 8.55747C9.57397 8.2718 9.71432 8.00942 9.92034 7.80348C10.1264 7.59755 10.3888 7.45732 10.6745 7.40051C10.9602 7.34369 11.2563 7.37285 11.5255 7.48429C11.7946 7.59574 12.0247 7.78447 12.1866 8.02662C12.3484 8.26878 12.4349 8.5535 12.4351 8.84479C12.4351 9.02772 12.5077 9.20315 12.6371 9.3325C12.7664 9.46184 12.9418 9.53451 13.1248 9.53451C13.3077 9.53451 13.4831 9.46184 13.6125 9.3325C13.7418 9.20315 13.8145 9.02772 13.8145 8.84479C13.8142 8.20803 13.6011 7.58962 13.2091 7.08781C12.8171 6.586 12.2687 6.22955 11.6509 6.07509V4.50808C11.6509 4.32516 11.5782 4.14973 11.4489 4.02038C11.3196 3.89103 11.1441 3.81837 10.9612 3.81837C10.7783 3.81837 10.6028 3.89103 10.4735 4.02038C10.3441 4.14973 10.2715 4.32516 10.2715 4.50808V6.07445C9.59526 6.2425 9.0039 6.65218 8.60895 7.22623C8.21399 7.80028 8.04275 8.499 8.12751 9.19062C8.21228 9.88224 8.54719 10.5189 9.06908 10.9806C9.59097 11.4423 10.2638 11.697 10.9606 11.6968ZM17.4264 42.7352H9.9614V57.8311H17.4264V42.7352ZM30.0486 31.8134H22.5836V57.8311H30.0486V31.8134ZM42.6702 23.9955H35.2052V57.8311H42.6702V23.9955Z" fill="url(#paint0_linear_755_165)"/>
<defs>
<linearGradient id="paint0_linear_755_165" x1="3.51237" y1="6.53301" x2="54.504" y2="14.0246" gradientUnits="userSpaceOnUse">
<stop stop-color="#F5841F"/>
<stop offset="0.241324" stop-color="#F1C961"/>
<stop offset="0.595497" stop-color="#00B3A6"/>
<stop offset="1" stop-color="#5B5FD1"/>
</linearGradient>
</defs>
</svg>
